<svg id="Layer_1" data-name="Layer 1" xmlns="http://www.w3.org/2000/svg" viewBox="0 0 1920 1080"><defs><style>.cls-1{fill:#2151a2;}.cls-2{fill:#fff;stroke:#2151a2;stroke-miterlimit:10;stroke-width:2px;}.cls-3{fill:none;stroke:#fff;stroke-miterlimit:22.93;stroke-width:1.13px;}.cls-4{fill:#2551a3;}.cls-4,.cls-5{fill-rule:evenodd;}.cls-5{fill:#ed1846;}</style></defs><title>slide_svgs</title><path class="cls-1" d="M1362.85,249v36.08h-4.33V249Z"/><path class="cls-1" d="M1403.15,249v4.13h-12.68v31.95h-4.32V253.14h-12.69V249Z"/><path class="cls-1" d="M1451,249v36.08h-4.33V257.21l-12.94,19.38H1431l-12.93-19.38v27.88h-4.34V249h3.72l14.89,22.27,14.9-22.27Z"/><path class="cls-1" d="M1482.05,248.39c12.63,0,18.87,9.33,18.87,18.66s-6.24,18.66-18.87,18.66-18.86-9.33-18.86-18.66S1469.43,248.39,1482.05,248.39Zm0,4.13c-9.79,0-14.48,7.11-14.48,14.53s4.69,14.54,14.48,14.54,14.49-7.11,14.49-14.54S1491.85,252.52,1482.05,252.52Z"/><path class="cls-1" d="M1560.85,249V271.9c0,10.31-7.06,13.81-15,13.81s-15.1-3.5-15.1-13.81V249H1535v22.68c0,7.32,4.54,9.9,10.77,9.9s10.72-2.58,10.72-9.9V249Z"/><path class="cls-1" d="M1575.07,285.09V249h4l21.7,28.82V249h4.33v36.08h-4l-21.7-28.86v28.86Z"/><path class="cls-1" d="M1624.09,249v36.08h-4.33V249Z"/><path class="cls-1" d="M1649.5,285.09l-15-36.08h4.63l12.53,31.24L1664.29,249h4.64l-15,36.08Z"/><path class="cls-1" d="M1703.71,249v4.13h-20v11.7h18.46V269h-18.46v12H1704v4.12h-24.64V249Z"/><path class="cls-1" d="M1716.49,285.09V249h14.12c6.5,0,13.51,2.68,13.51,10.93,0,6.65-4.54,9.64-9.64,10.57l12.21,14.58h-5.41l-11.8-14.22h-8.66v14.22Zm4.33-18.35h10c4.33,0,8.92-1.44,8.92-6.8s-4.59-6.8-8.92-6.8h-10Z"/><path class="cls-1" d="M1767.67,248.39A23,23,0,0,1,1778.6,251v4.33a20,20,0,0,0-10.62-2.83c-4.74,0-8.3,1.39-8.3,5.25,0,9.13,21.49,5.21,21.49,18.15,0,7.16-6.44,9.84-13.35,9.79a25.14,25.14,0,0,1-12.37-3.09v-4.33a22.92,22.92,0,0,0,12.06,3.3c5,0,9.28-1.29,9.28-5.36,0-9.69-21.49-5.62-21.49-18.3C1755.3,251.49,1761.12,248.39,1767.67,248.39Z"/><path class="cls-1" d="M1797.09,249v36.08h-4.33V249Z"/><path class="cls-1" d="M1837.4,249v4.13h-12.68v31.95h-4.33V253.14h-12.68V249Z"/><path class="cls-1" d="M1858,285.09V271.43L1843.83,249h4.8l11.54,18.56L1871.72,249h4.79l-14.17,22.42v13.66Z"/><path class="cls-1" d="M1540.91,104.31V126h-34.45V216.5h-23.88V126h-34.46V104.31Z"/><path class="cls-2" d="M1639.57,104.31v90.55h55V216.5h-79V104.31Z"/><path class="cls-2" d="M1780.28,201.75a13.24,13.24,0,0,0,4.17-.64v14.58a37.35,37.35,0,0,1-12.34,2.25c-7.86,0-13.79-2.89-17-8.66a43,43,0,0,1-27.73,9.46c-14.42,0-26.92-8.33-26.92-23.56,0-19.55,18.43-25.64,33.82-25.64a84.07,84.07,0,0,1,18.27,2.08V168.9c0-7.69-6.09-13-18.11-13-10.58,0-20,2.88-27.25,5.77V142.46a100.2,100.2,0,0,1,29.81-5.13c23.08,0,37.82,9.45,37.82,34.77v24.52C1774.83,200.63,1777.4,201.75,1780.28,201.75Zm-57-8.33c0,5.77,5.29,9.45,12,9.45a25.38,25.38,0,0,0,17.31-6.25v-12a60.86,60.86,0,0,0-13.15-1.76C1731.24,182.84,1723.23,185.57,1723.23,193.42Z"/><path class="cls-2" d="M1817.3,104.31v43.43c4.81-5.45,13.15-10.41,25.33-10.41,24.36,0,37.5,19.71,37.5,40.7s-13.14,40.71-37.5,40.71c-14.27,0-23.08-6.57-27.89-13.46V216.5H1795V104.31Zm19.88,51.77a21.94,21.94,0,0,0-20,12.82v18.27a21.94,21.94,0,0,0,20,12.82c12.66,0,20.19-9.94,20.19-22S1849.84,156.08,1837.18,156.08Z"/><path class="cls-1" d="M1422.14,104.29h16.15v21.79h-28.53q-15.4,0-23.66,6.77a27.07,27.07,0,0,0-4.31,3.54,28.86,28.86,0,0,0-3.86,4.86,35.59,35.59,0,0,0-6,19.46q0,9.89,6.93,20.16,5.52,8.16,17.82,12.29,4.44,1.49,13.07,1.48h28.53v21.25l-2.48.46H1412.1a100.56,100.56,0,0,1-17-1.24,48,48,0,0,1-12-3.5,61.7,61.7,0,0,1-17.5-11.79,55.56,55.56,0,0,1-16.28-39.34,57.14,57.14,0,0,1,3.09-18.92,53.22,53.22,0,0,1,9.56-16.65,62.16,62.16,0,0,1,6.91-7.12,45.7,45.7,0,0,1,6.59-4.79,76,76,0,0,1,10.82-5.48,28.69,28.69,0,0,1,9.81-2.22q1.62-.63,8.09-.82T1422.14,104.29Z"/><polygon class="cls-3" points="-69.6 -187.96 630.62 -187.96 630.62 512.25 -69.6 512.25 -69.6 -187.96 -69.6 -187.96"/><path class="cls-4" d="M172,123.2a7.72,7.72,0,1,1-7.72-7.72A7.72,7.72,0,0,1,172,123.2ZM521.07,249.38a3.43,3.43,0,0,0-3.07-.28,5.62,5.62,0,0,0-2.23,2.11l-8.59,13.31-8.86-13.31a5.52,5.52,0,0,0-2.41-2.23,3.5,3.5,0,0,0-3.2.42c-1.91,1.35-2,3.33-.4,5.89l11,15.8v13.26a3.78,3.78,0,0,0,.94,2.63,3.94,3.94,0,0,0,5.31,0,3.7,3.7,0,0,0,1-2.63V270.81l10.88-16.26a5.13,5.13,0,0,0,1-2.71,3.07,3.07,0,0,0-1.33-2.46Zm-38.86-.59H455.55a3.63,3.63,0,0,0-2.49.85,3,3,0,0,0-.94,2.36,3.11,3.11,0,0,0,.94,2.36,3.41,3.41,0,0,0,2.49.91h9.73V284.4a3.76,3.76,0,0,0,.93,2.63,4,4,0,0,0,5.34,0,3.76,3.76,0,0,0,.94-2.63V255.27h9.72a3.49,3.49,0,0,0,2.55-.91,3.11,3.11,0,0,0,.94-2.36,3,3,0,0,0-.95-2.36,3.66,3.66,0,0,0-2.54-.85Zm-40,0a3.37,3.37,0,0,0-2.67,1.07,3.84,3.84,0,0,0-.93,2.65V284.4a3.76,3.76,0,0,0,.93,2.63,3.94,3.94,0,0,0,5.31,0,3.68,3.68,0,0,0,1-2.63V252.51a3.8,3.8,0,0,0-1-2.66,3.42,3.42,0,0,0-2.64-1.06Zm-16,18.54a47.68,47.68,0,0,0-4.74-2.15c-1.7-.67-3.29-1.24-4.74-1.7a9.86,9.86,0,0,1-3.55-1.89,3.67,3.67,0,0,1-1.38-2.89c0-2.57,1.74-3.82,5.34-3.82a17.47,17.47,0,0,1,6.82,1.5c2.87,1.25,4.76,1,5.64-.73,1-2,.35-3.73-2.06-5a19.69,19.69,0,0,0-9.9-2.39c-4.23,0-7.51,1-9.74,2.87a9.81,9.81,0,0,0-3.37,7.82,10.27,10.27,0,0,0,2.08,6.61,12.1,12.1,0,0,0,5,3.76c1.94.77,3.89,1.46,5.78,2.06a16.57,16.57,0,0,1,4.83,2.33,4.24,4.24,0,0,1,1.93,3.64,3.87,3.87,0,0,1-1.72,3.46,8.65,8.65,0,0,1-4.85,1.2,20.06,20.06,0,0,1-8.35-2.06c-2.6-1.07-4.33-.79-5.13.77a3.31,3.31,0,0,0-.15,3.08,5.73,5.73,0,0,0,2.67,2.53,23.59,23.59,0,0,0,10.79,2.33c4.65,0,8.18-1.11,10.51-3.3a11.66,11.66,0,0,0,3.5-8.86,10.29,10.29,0,0,0-1.5-5.63,9.59,9.59,0,0,0-3.72-3.51Zm-50.29-12a39.12,39.12,0,0,1,4-.31c5.26,0,7.81,1.91,7.81,5.85,0,2.2-.67,3.81-2,4.79s-3.45,1.5-6.27,1.5a30.43,30.43,0,0,1-3.59-.2V255.3Zm12.44,15.89a10.4,10.4,0,0,0,5-3.87,11.8,11.8,0,0,0,2-6.88c0-7.91-5-11.93-14.8-11.93a40.46,40.46,0,0,0-8.48.74,3.81,3.81,0,0,0-3.33,4.1v31a3.76,3.76,0,0,0,.93,2.63,3.94,3.94,0,0,0,5.31,0,3.68,3.68,0,0,0,1-2.63V272.46a22.73,22.73,0,0,0,3.08.19,21.39,21.39,0,0,0,2.3-.09l7.91,13c1,1.67,2.18,2.51,3.48,2.51a4,4,0,0,0,2-.58,3.19,3.19,0,0,0,1.57-2.5,4.79,4.79,0,0,0-.88-3.22l-7-10.61Zm-30.22,10.4h-16V271.13h12.31a3.49,3.49,0,0,0,2.55-.91,3.11,3.11,0,0,0,.95-2.35,3,3,0,0,0-.95-2.37,3.68,3.68,0,0,0-2.55-.84H342.11v-9.39h15.46a3.52,3.52,0,0,0,2.5-.87,3.1,3.1,0,0,0,.94-2.34,3.15,3.15,0,0,0-.94-2.39,3.55,3.55,0,0,0-2.5-.88h-19a3.51,3.51,0,0,0-2.7,1.06,3.8,3.8,0,0,0-1,2.66v31.84a3.79,3.79,0,0,0,1,2.66,3.59,3.59,0,0,0,2.73,1.05h19.52a3.51,3.51,0,0,0,2.49-.87,3.07,3.07,0,0,0,.94-2.34,3.12,3.12,0,0,0-.94-2.39,3.53,3.53,0,0,0-2.49-.87Zm-31.3-32.5c-2.26-.91-4,.12-5,3l-9.41,25.54-10.24-25.82c-1.06-2.66-2.78-3.56-5-2.66a3,3,0,0,0-2,2.33,4.38,4.38,0,0,0,.35,3l13,31.5c.75,1.74,1.91,2.62,3.47,2.62a3.76,3.76,0,0,0,3.65-2.74l12.42-31.83a4.62,4.62,0,0,0,.33-3.49,2.86,2.86,0,0,0-1.63-1.48Zm-42.21-.3a3.41,3.41,0,0,0-2.68,1.07,3.84,3.84,0,0,0-.93,2.65V284.4A3.8,3.8,0,0,0,282,287a3.95,3.95,0,0,0,5.32,0,3.67,3.67,0,0,0,1-2.63V252.51a3.8,3.8,0,0,0-1-2.66,3.42,3.42,0,0,0-2.64-1.06Zm-17.27,0c-2.17,0-3.27,1.26-3.27,3.72v22.65L246,250.75a4.22,4.22,0,0,0-3.51-2c-2.24,0-3.38,1.27-3.38,3.78V284.4c0,2.43,1.1,3.66,3.27,3.66s3.32-1.23,3.32-3.66V261.92L264,286.29a4.08,4.08,0,0,0,3.22,1.77,3.21,3.21,0,0,0,2.5-1,3.76,3.76,0,0,0,.93-2.63V252.51c0-2.46-1.12-3.72-3.32-3.72Zm-42.13,0a3.17,3.17,0,0,0-2.57,1.07,4.08,4.08,0,0,0-.86,2.65v19.8c0,6.62-2.63,9.84-8,9.84s-8-3.18-8-9.73V252.51a3.8,3.8,0,0,0-1-2.66,3.49,3.49,0,0,0-2.7-1.06,3.32,3.32,0,0,0-2.62,1.07,3.84,3.84,0,0,0-.93,2.65v19.63c0,4.9,1.2,8.92,3.57,11.93s6.29,4.56,11.62,4.56a17.87,17.87,0,0,0,7.18-1.32,10.87,10.87,0,0,0,4.71-3.7,16.39,16.39,0,0,0,2.4-5.23,25.83,25.83,0,0,0,.73-6.35V252.51a3.94,3.94,0,0,0-.9-2.65,3.21,3.21,0,0,0-2.59-1.07Zm-61.46,29.54a10.83,10.83,0,0,1-16.51,0,18.35,18.35,0,0,1,0-19.8,10.83,10.83,0,0,1,16.51,0,18.3,18.3,0,0,1,0,19.8Zm-8.28-30.1c-5.93,0-10.58,1.92-13.82,5.71s-4.86,8.65-4.86,14.49,1.64,10.76,4.86,14.52,7.89,5.68,13.82,5.68,10.58-1.91,13.84-5.68,4.89-8.64,4.89-14.52-1.64-10.72-4.89-14.49-7.91-5.71-13.84-5.71Zm-30.6.56a4.13,4.13,0,0,0-3.51,2.25L110.32,268.9,99.05,251.1a4.25,4.25,0,0,0-3.69-2.31,3.35,3.35,0,0,0-2.44.94,3.9,3.9,0,0,0-.94,2.84V284.4c0,2.43,1.14,3.66,3.38,3.66s3.38-1.23,3.38-3.66V262.58l7.9,12.38a3.67,3.67,0,0,0,6.64,0l7.78-12.59V284.4a3.68,3.68,0,0,0,1,2.63,3.94,3.94,0,0,0,5.31,0,3.76,3.76,0,0,0,.93-2.63V252.51a4,4,0,0,0-.87-2.68,3.12,3.12,0,0,0-2.51-1Zm-42.69,0H55.54a3.63,3.63,0,0,0-2.49.85,3.06,3.06,0,0,0-.94,2.36,3.11,3.11,0,0,0,.94,2.36,3.41,3.41,0,0,0,2.49.91h9.73V284.4A3.76,3.76,0,0,0,66.2,287a4,4,0,0,0,5.34,0,3.76,3.76,0,0,0,.94-2.63V255.27H82.2a3.49,3.49,0,0,0,2.55-.91,3.11,3.11,0,0,0,.94-2.36,3,3,0,0,0-.94-2.36,3.7,3.7,0,0,0-2.55-.85Zm-40,0a3.37,3.37,0,0,0-2.67,1.07,3.84,3.84,0,0,0-.93,2.65V284.4a3.76,3.76,0,0,0,.93,2.63,3.94,3.94,0,0,0,5.31,0,3.68,3.68,0,0,0,1-2.63V252.51a3.84,3.84,0,0,0-1-2.66,3.46,3.46,0,0,0-2.65-1.06Zm392.25-192A4.51,4.51,0,1,1,430,52.27a4.51,4.51,0,0,1,4.51,4.51Zm-33.21-16.6a4.51,4.51,0,1,1-4.51-4.51,4.5,4.5,0,0,1,4.51,4.51Zm-99.63,16.6a4.51,4.51,0,1,1-4.51-4.51,4.51,4.51,0,0,1,4.51,4.51Zm102.83,49.81a7.72,7.72,0,1,1-7.71-7.71,7.72,7.72,0,0,1,7.71,7.71Zm-3.2,33.21a4.51,4.51,0,1,1-4.51-4.51,4.51,4.51,0,0,1,4.51,4.51ZM375.1,90a11.57,11.57,0,1,1-11.57-11.57A11.57,11.57,0,0,1,375.1,90Zm33.21-16.61a11.57,11.57,0,1,1-11.57-11.57,11.57,11.57,0,0,1,11.57,11.57Zm-40.27,83a4.51,4.51,0,1,1-4.51-4.51,4.51,4.51,0,0,1,4.51,4.51ZM434.46,90A4.51,4.51,0,1,1,430,85.48,4.51,4.51,0,0,1,434.46,90ZM235.2,56.78a4.51,4.51,0,1,1-4.51-4.51,4.51,4.51,0,0,1,4.51,4.51Zm-66.42,0a4.51,4.51,0,1,1-4.51-4.51,4.51,4.51,0,0,1,4.51,4.51ZM268.18,173a4.51,4.51,0,1,1-4.51-4.51,4.51,4.51,0,0,1,4.51,4.51ZM202,40.17a4.51,4.51,0,1,1-4.51-4.5,4.5,4.5,0,0,1,4.51,4.5Zm0,99.4a4.51,4.51,0,1,1-4.51-4.51,4.51,4.51,0,0,1,4.51,4.51Zm-66.42-33a4.51,4.51,0,1,1-4.51-4.51,4.51,4.51,0,0,1,4.51,4.51Zm0,33.21a4.51,4.51,0,1,1-4.51-4.51,4.51,4.51,0,0,1,4.51,4.51Zm73.48-33.21A11.57,11.57,0,1,1,197.48,95a11.57,11.57,0,0,1,11.57,11.57Zm29.35,49.82a7.71,7.71,0,1,1-7.71-7.72,7.71,7.71,0,0,1,7.71,7.72Zm33.22-83a7.72,7.72,0,1,1-7.72-7.71,7.72,7.72,0,0,1,7.72,7.71Zm99.62,49.82a7.72,7.72,0,1,1-7.71-7.72,7.71,7.71,0,0,1,7.71,7.72Zm0-66.42a7.72,7.72,0,1,1-7.71-7.71,7.71,7.71,0,0,1,7.71,7.71Zm-29.35,16.6a11.57,11.57,0,1,1-11.57-11.57,11.57,11.57,0,0,1,11.57,11.57ZM271.62,139.8a7.72,7.72,0,1,1-7.72-7.71,7.72,7.72,0,0,1,7.72,7.71ZM308.68,90a11.57,11.57,0,1,1-11.57-11.57A11.57,11.57,0,0,1,308.68,90Zm33.21,16.6A11.57,11.57,0,1,1,330.32,95a11.57,11.57,0,0,1,11.57,11.57ZM338,139.8a7.71,7.71,0,1,1-7.71-7.71A7.72,7.72,0,0,1,338,139.8Zm-33.21,16.61a7.72,7.72,0,1,1-7.71-7.72,7.71,7.71,0,0,1,7.71,7.72Zm3.86-33.21a11.57,11.57,0,1,1-11.57-11.57,11.57,11.57,0,0,1,11.57,11.57Zm-66.42,0a11.57,11.57,0,1,1-11.57-11.57,11.57,11.57,0,0,1,11.57,11.57Zm33.21-16.61A11.57,11.57,0,1,1,263.9,95a11.57,11.57,0,0,1,11.57,11.57ZM242.26,90a11.57,11.57,0,1,1-11.57-11.57A11.57,11.57,0,0,1,242.26,90ZM209.05,73.38a11.57,11.57,0,1,1-11.57-11.57,11.58,11.58,0,0,1,11.57,11.57Z"/><path class="cls-5" d="M175.84,90a11.57,11.57,0,1,1-11.57-11.57A11.57,11.57,0,0,1,175.84,90Z"/></svg>