<svg version="1.1" width="353.159" height="346.855" viewBox="0 0 0.882528 0.866772" xmlns="http://www.w3.org/2000/svg" xmlns:xlink="http://www.w3.org/1999/xlink" id="svg6287" overflow="hidden"><defs id="defs6289"></defs><g id="g6295" transform="matrix(0.00833333,0,0,0.00833333,0.462931,0.428911)"><line x1="-50" y1="50" x2="50" y2="50" id="line6297" stroke="#000000" stroke-width="0.2"/><line x1="-50" y1="51" x2="-50" y2="49" id="line6299" stroke="#808080" stroke-width="0.2"/><text id="text6301" fill="#000000" font-family="Times New Roman,times new roman" font-size="2" text-anchor="middle" x="-50" y="52.515">0</text><line x1="-40" y1="51" x2="-40" y2="49" id="line6303" stroke="#808080" stroke-width="0.2"/><text id="text6305" fill="#000000" font-family="Times New Roman,times new roman" font-size="2" text-anchor="middle" x="-40" y="52.515">0.1</text><line x1="-30" y1="51" x2="-30" y2="49" id="line6307" stroke="#808080" stroke-width="0.2"/><text id="text6309" fill="#000000" font-family="Times New Roman,times new roman" font-size="2" text-anchor="middle" x="-30" y="52.515">0.2</text><line x1="-20" y1="51" x2="-20" y2="49" id="line6311" stroke="#808080" stroke-width="0.2"/><text id="text6313" fill="#000000" font-family="Times New Roman,times new roman" font-size="2" text-anchor="middle" x="-20" y="52.515">0.3</text><line x1="-10" y1="51" x2="-10" y2="49" id="line6315" stroke="#808080" stroke-width="0.2"/><text id="text6317" fill="#000000" font-family="Times New Roman,times new roman" font-size="2" text-anchor="middle" x="-10" y="52.515">0.4</text><line x1="0" y1="51" x2="0" y2="49" id="line6319" stroke="#808080" stroke-width="0.2"/><text id="text6321" fill="#000000" font-family="Times New Roman,times new roman" font-size="2" text-anchor="middle" x="0" y="52.515">0.5</text><line x1="10" y1="51" x2="10" y2="49" id="line6323" stroke="#808080" stroke-width="0.2"/><text id="text6325" fill="#000000" font-family="Times New Roman,times new roman" font-size="2" text-anchor="middle" x="10" y="52.515">0.6</text><line x1="20" y1="51" x2="20" y2="49" id="line6327" stroke="#808080" stroke-width="0.2"/><text id="text6329" fill="#000000" font-family="Times New Roman,times new roman" font-size="2" text-anchor="middle" x="20" y="52.515">0.7</text><line x1="30" y1="51" x2="30" y2="49" id="line6331" stroke="#808080" stroke-width="0.2"/><text id="text6333" fill="#000000" font-family="Times New Roman,times new roman" font-size="2" text-anchor="middle" x="30" y="52.515">0.8</text><line x1="40" y1="51" x2="40" y2="49" id="line6335" stroke="#808080" stroke-width="0.2"/><text id="text6337" fill="#000000" font-family="Times New Roman,times new roman" font-size="2" text-anchor="middle" x="40" y="52.515">0.9</text><line x1="50" y1="51" x2="50" y2="49" id="line6339" stroke="#808080" stroke-width="0.2"/><text id="text6341" fill="#000000" font-family="Times New Roman,times new roman" font-size="2" text-anchor="middle" x="50" y="52.515">1</text><line x1="-50" y1="50" x2="-50" y2="-50" id="line6345" stroke="#000000" stroke-width="0.2"/><line x1="-49" y1="50" x2="-51" y2="50" id="line6347" stroke="#808080" stroke-width="0.2"/><text id="text6349" fill="#000000" font-family="Times New Roman,times new roman" font-size="2" text-anchor="end" x="-52.5" y="50.015">0</text><line x1="-49" y1="38.8889" x2="-51" y2="38.8889" id="line6351" stroke="#808080" stroke-width="0.2"/><text id="text6353" fill="#000000" font-family="Times New Roman,times new roman" font-size="2" text-anchor="end" x="-52.5" y="38.9039">0.1</text><line x1="-49" y1="27.7778" x2="-51" y2="27.7778" id="line6355" stroke="#808080" stroke-width="0.2"/><text id="text6357" fill="#000000" font-family="Times New Roman,times new roman" font-size="2" text-anchor="end" x="-52.5" y="27.7928">0.2</text><line x1="-49" y1="16.6667" x2="-51" y2="16.6667" id="line6359" stroke="#808080" stroke-width="0.2"/><text id="text6361" fill="#000000" font-family="Times New Roman,times new roman" font-size="2" text-anchor="end" x="-52.5" y="16.6817">0.3</text><line x1="-49" y1="5.55556" x2="-51" y2="5.55556" id="line6363" stroke="#808080" stroke-width="0.2"/><text id="text6365" fill="#000000" font-family="Times New Roman,times new roman" font-size="2" text-anchor="end" x="-52.5" y="5.57056">0.4</text><line x1="-49" y1="-5.55556" x2="-51" y2="-5.55556" id="line6367" stroke="#808080" stroke-width="0.2"/><text id="text6369" fill="#000000" font-family="Times New Roman,times new roman" font-size="2" text-anchor="end" x="-52.5" y="-5.54056">0.5</text><line x1="-49" y1="-16.6667" x2="-51" y2="-16.6667" id="line6371" stroke="#808080" stroke-width="0.2"/><text id="text6373" fill="#000000" font-family="Times New Roman,times new roman" font-size="2" text-anchor="end" x="-52.5" y="-16.6517">0.6</text><line x1="-49" y1="-27.7778" x2="-51" y2="-27.7778" id="line6375" stroke="#808080" stroke-width="0.2"/><text id="text6377" fill="#000000" font-family="Times New Roman,times new roman" font-size="2" text-anchor="end" x="-52.5" y="-27.7628">0.7</text><line x1="-49" y1="-38.8889" x2="-51" y2="-38.8889" id="line6379" stroke="#808080" stroke-width="0.2"/><text id="text6381" fill="#000000" font-family="Times New Roman,times new roman" font-size="2" text-anchor="end" x="-52.5" y="-38.8739">0.8</text><line x1="-49" y1="-50" x2="-51" y2="-50" id="line6383" stroke="#808080" stroke-width="0.2"/><text id="text6385" fill="#000000" font-family="Times New Roman,times new roman" font-size="2" text-anchor="end" x="-52.5" y="-49.985">0.9</text></g><g id="g6389" transform="matrix(0.00833333,0,0,0.00833333,0.462931,0.428911)"></g><g id="g6391" transform="matrix(0.00833333,0,0,0.00833333,0.462931,0.428911)"></g><g id="g6393" transform="matrix(0.00833333,0,0,0.00833333,0.462931,0.428911)"><path d=" M 11.5252 -2.32189 L 10.8913 2.58501 L 7.3073 8.16601 L 4.78393 12.6244 L -5.26127 20.2001 L -8.77966 23.4691 L -9.70111 26.3738 L -12.2958 32.4128 L -6.51516 35.2698 L -1.37203 36.6921 L 11.0286 40.1022 L 10.8508 28.1283 L 17.7017 12.9793 L 24.2852 7.30629 L 25.649 1.07867 L 25.6559 -3.7551 L 25.78 -14.8707 L 24.2213 -24.5479 L 17.551 -25.9186 L 12.102 -31.156 L 5.61919 -41.5221 L -1.57068 -47.6045 L -10.4311 -45.3732 L -12.2489 -43.1707 L -11.1182 -36.0851 L -7.62367 -31.6664 L 5.01658 -16.39 L 10.0652 -10.8632 Z" id="path6395" stroke="#FF0000" stroke-width="0" fill="#FF0000" fill-opacity="0.3"/><path d=" M -14.9656 5.95474 L -9.23262 6.21058 L -6.91416 2.94722 L -5.99263 1.46493 L -7.24667 -10.7187 L -21.8854 -23.6116 L -28.8064 -19.6809 L -35.4984 -7.87478 L -35.775 -4.88532 L -35.0961 0.032113 L -32.071 3.09976 L -25.533 11.5597 Z" id="path6397" stroke="#0000FF" stroke-width="0" fill="#0000FF" fill-opacity="0.3"/></g><g id="g6399" transform="matrix(0.00833333,0,0,0.00833333,0.462931,0.428911)"><circle cx="18.7499" cy="-7.28871" r="0.5" id="circle6401" fill="#FF0000"/><circle cx="18.8799" cy="-6.03469" r="0.5" id="circle6403" fill="#FF0000"/><circle cx="20.4112" cy="-7.29438" r="0.5" id="circle6405" fill="#FF0000"/><circle cx="16.5245" cy="-7.91019" r="0.5" id="circle6407" fill="#FF0000"/><circle cx="21.4704" cy="-6.83557" r="0.5" id="circle6409" fill="#FF0000"/><circle cx="18.5278" cy="-4.22691" r="0.5" id="circle6411" fill="#FF0000"/><circle cx="17.9273" cy="-4.11126" r="0.5" id="circle6413" fill="#FF0000"/><circle cx="17.8735" cy="-10.4871" r="0.5" id="circle6415" fill="#FF0000"/><circle cx="15.9213" cy="-6.03872" r="0.5" id="circle6417" fill="#FF0000"/><circle cx="20.2602" cy="-4.17431" r="0.5" id="circle6419" fill="#FF0000"/><circle cx="15.7718" cy="-5.64303" r="0.5" id="circle6421" fill="#FF0000"/><circle cx="16.7025" cy="-4.092" r="0.5" id="circle6423" fill="#FF0000"/><circle cx="22.1275" cy="-5.79777" r="0.5" id="circle6425" fill="#FF0000"/><circle cx="15.531" cy="-4.75745" r="0.5" id="circle6427" fill="#FF0000"/><circle cx="17.413" cy="-11.54" r="0.5" id="circle6429" fill="#FF0000"/><circle cx="20.0252" cy="-11.5719" r="0.5" id="circle6431" fill="#FF0000"/><circle cx="14.7537" cy="-8.70432" r="0.5" id="circle6433" fill="#FF0000"/><circle cx="22.5276" cy="-9.47979" r="0.5" id="circle6435" fill="#FF0000"/><circle cx="15.3042" cy="-3.86639" r="0.5" id="circle6437" fill="#FF0000"/><circle cx="21.0554" cy="-2.61414" r="0.5" id="circle6439" fill="#FF0000"/><circle cx="20.3092" cy="-12.4062" r="0.5" id="circle6441" fill="#FF0000"/><circle cx="15.0405" cy="-11.1472" r="0.5" id="circle6443" fill="#FF0000"/><circle cx="16.802" cy="-2.06705" r="0.5" id="circle6445" fill="#FF0000"/><circle cx="21.8758" cy="-2.70765" r="0.5" id="circle6447" fill="#FF0000"/><circle cx="21.0757" cy="-2.06378" r="0.5" id="circle6449" fill="#FF0000"/><circle cx="14.6437" cy="-3.39013" r="0.5" id="circle6451" fill="#FF0000"/><circle cx="23.4278" cy="-4.26283" r="0.5" id="circle6453" fill="#FF0000"/><circle cx="17.0306" cy="-1.46668" r="0.5" id="circle6455" fill="#FF0000"/><circle cx="22.8149" cy="-3.01199" r="0.5" id="circle6457" fill="#FF0000"/><circle cx="23.7297" cy="-10.51" r="0.5" id="circle6459" fill="#FF0000"/><circle cx="16.4878" cy="-13.2747" r="0.5" id="circle6461" fill="#FF0000"/><circle cx="19.2881" cy="-13.8591" r="0.5" id="circle6463" fill="#FF0000"/><circle cx="16.3645" cy="-13.4564" r="0.5" id="circle6465" fill="#FF0000"/><circle cx="24.8323" cy="-6.76998" r="0.5" id="circle6467" fill="#FF0000"/><circle cx="19.022" cy="-14.392" r="0.5" id="circle6469" fill="#FF0000"/><circle cx="23.0357" cy="-1.79211" r="0.5" id="circle6471" fill="#FF0000"/><circle cx="14.839" cy="-13.3439" r="0.5" id="circle6473" fill="#FF0000"/><circle cx="13.5261" cy="-2.53542" r="0.5" id="circle6475" fill="#FF0000"/><circle cx="18.6576" cy="-15.1854" r="0.5" id="circle6477" fill="#FF0000"/><circle cx="13.1401" cy="-12.1575" r="0.5" id="circle6479" fill="#FF0000"/><circle cx="16.9733" cy="0.412022" r="0.5" id="circle6481" fill="#FF0000"/><circle cx="25.6381" cy="-9.99536" r="0.5" id="circle6483" fill="#FF0000"/><circle cx="24.3135" cy="-1.62772" r="0.5" id="circle6485" fill="#FF0000"/><circle cx="25.6559" cy="-3.7551" r="0.5" id="circle6487" fill="#FF0000"/><circle cx="26.0009" cy="-9.84216" r="0.5" id="circle6489" fill="#FF0000"/><circle cx="17.6545" cy="1.17486" r="0.5" id="circle6491" fill="#FF0000"/><circle cx="13.1352" cy="-13.6216" r="0.5" id="circle6493" fill="#FF0000"/><circle cx="17.6195" cy="1.57237" r="0.5" id="circle6495" fill="#FF0000"/><circle cx="11.5421" cy="-2.77922" r="0.5" id="circle6497" fill="#FF0000"/><circle cx="18.5197" cy="-16.5883" r="0.5" id="circle6499" fill="#FF0000"/><circle cx="11.5252" cy="-2.32189" r="0.5" id="circle6501" fill="#FF0000"/><circle cx="16.7149" cy="1.92423" r="0.5" id="circle6503" fill="#FF0000"/><circle cx="13.8776" cy="0.619031" r="0.5" id="circle6505" fill="#FF0000"/><circle cx="13.9557" cy="-15.3039" r="0.5" id="circle6507" fill="#FF0000"/><circle cx="15.5213" cy="1.67014" r="0.5" id="circle6509" fill="#FF0000"/><circle cx="17.0042" cy="2.22295" r="0.5" id="circle6511" fill="#FF0000"/><circle cx="11.9805" cy="-0.380038" r="0.5" id="circle6513" fill="#FF0000"/><circle cx="10.929" cy="-12.764" r="0.5" id="circle6515" fill="#FF0000"/><circle cx="10.0652" cy="-10.8632" r="0.5" id="circle6517" fill="#FF0000"/><circle cx="22.8864" cy="2.30507" r="0.5" id="circle6519" fill="#FF0000"/><circle cx="11.3293" cy="-14.2636" r="0.5" id="circle6521" fill="#FF0000"/><circle cx="17.3251" cy="3.44776" r="0.5" id="circle6523" fill="#FF0000"/><circle cx="25.78" cy="-14.8707" r="0.5" id="circle6525" fill="#FF0000"/><circle cx="13.1535" cy="1.70722" r="0.5" id="circle6527" fill="#FF0000"/><circle cx="12.8733" cy="-16.1706" r="0.5" id="circle6529" fill="#FF0000"/><circle cx="17.8997" cy="3.93782" r="0.5" id="circle6531" fill="#FF0000"/><circle cx="15.1814" cy="3.23608" r="0.5" id="circle6533" fill="#FF0000"/><circle cx="25.649" cy="1.07867" r="0.5" id="circle6535" fill="#FF0000"/><circle cx="14.0426" cy="3.28818" r="0.5" id="circle6537" fill="#FF0000"/><circle cx="13.8333" cy="3.18227" r="0.5" id="circle6539" fill="#FF0000"/><circle cx="11.5687" cy="-15.4453" r="0.5" id="circle6541" fill="#FF0000"/><circle cx="10.0688" cy="-14.1708" r="0.5" id="circle6543" fill="#FF0000"/><circle cx="12.2371" cy="-16.5472" r="0.5" id="circle6545" fill="#FF0000"/><circle cx="14.9454" cy="-17.7315" r="0.5" id="circle6547" fill="#FF0000"/><circle cx="12.5622" cy="-17.1634" r="0.5" id="circle6549" fill="#FF0000"/><circle cx="24.5747" cy="3.63276" r="0.5" id="circle6551" fill="#FF0000"/><circle cx="11.8988" cy="1.99914" r="0.5" id="circle6553" fill="#FF0000"/><circle cx="11.6811" cy="2.21078" r="0.5" id="circle6555" fill="#FF0000"/><circle cx="21.9807" cy="5.33036" r="0.5" id="circle6557" fill="#FF0000"/><circle cx="17.6135" cy="6.18884" r="0.5" id="circle6559" fill="#FF0000"/><circle cx="23.9011" cy="4.42137" r="0.5" id="circle6561" fill="#FF0000"/><circle cx="10.8913" cy="2.58501" r="0.5" id="circle6563" fill="#FF0000"/><circle cx="18.9907" cy="-19.2465" r="0.5" id="circle6565" fill="#FF0000"/><circle cx="17.69" cy="-19.4727" r="0.5" id="circle6567" fill="#FF0000"/><circle cx="17.3402" cy="-19.9298" r="0.5" id="circle6569" fill="#FF0000"/><circle cx="15.6588" cy="6.95595" r="0.5" id="circle6571" fill="#FF0000"/><circle cx="15.3768" cy="-21.3875" r="0.5" id="circle6573" fill="#FF0000"/><circle cx="13.4489" cy="-20.6804" r="0.5" id="circle6575" fill="#FF0000"/><circle cx="12.9991" cy="-20.7504" r="0.5" id="circle6577" fill="#FF0000"/><circle cx="20.7202" cy="-21.925" r="0.5" id="circle6579" fill="#FF0000"/><circle cx="24.2852" cy="7.30629" r="0.5" id="circle6581" fill="#FF0000"/><circle cx="7.79249" cy="-17.6813" r="0.5" id="circle6583" fill="#FF0000"/><circle cx="6.48907" cy="-15.4291" r="0.5" id="circle6585" fill="#FF0000"/><circle cx="12.8609" cy="-21.777" r="0.5" id="circle6587" fill="#FF0000"/><circle cx="18.5995" cy="8.62293" r="0.5" id="circle6589" fill="#FF0000"/><circle cx="14.4505" cy="-22.5986" r="0.5" id="circle6591" fill="#FF0000"/><circle cx="13.5416" cy="-22.3085" r="0.5" id="circle6593" fill="#FF0000"/><circle cx="12.652" cy="-22.2312" r="0.5" id="circle6595" fill="#FF0000"/><circle cx="11.8294" cy="-22.7017" r="0.5" id="circle6597" fill="#FF0000"/><circle cx="17.551" cy="-25.9186" r="0.5" id="circle6599" fill="#FF0000"/><circle cx="5.01657" cy="-16.39" r="0.5" id="circle6601" fill="#FF0000"/><circle cx="14.4163" cy="9.8579" r="0.5" id="circle6603" fill="#FF0000"/><circle cx="12.8842" cy="9.19154" r="0.5" id="circle6605" fill="#FF0000"/><circle cx="13.5183" cy="9.97827" r="0.5" id="circle6607" fill="#FF0000"/><circle cx="21.5296" cy="10.1241" r="0.5" id="circle6609" fill="#FF0000"/><circle cx="10.4612" cy="8.7868" r="0.5" id="circle6611" fill="#FF0000"/><circle cx="13.665" cy="11.1297" r="0.5" id="circle6613" fill="#FF0000"/><circle cx="9.40461" cy="-22.6879" r="0.5" id="circle6615" fill="#FF0000"/><circle cx="9.81597" cy="-23.3169" r="0.5" id="circle6617" fill="#FF0000"/><circle cx="6.50284" cy="-21.0141" r="0.5" id="circle6619" fill="#FF0000"/><circle cx="10.4956" cy="-23.7396" r="0.5" id="circle6621" fill="#FF0000"/><circle cx="11.4708" cy="-24.4763" r="0.5" id="circle6623" fill="#FF0000"/><circle cx="9.91855" cy="8.43034" r="0.5" id="circle6625" fill="#FF0000"/><circle cx="11.3311" cy="10.1932" r="0.5" id="circle6627" fill="#FF0000"/><circle cx="24.2213" cy="-24.5479" r="0.5" id="circle6629" fill="#FF0000"/><circle cx="12.0039" cy="-24.8069" r="0.5" id="circle6631" fill="#FF0000"/><circle cx="13.1106" cy="11.9741" r="0.5" id="circle6633" fill="#FF0000"/><circle cx="17.7017" cy="12.9793" r="0.5" id="circle6635" fill="#FF0000"/><circle cx="7.3073" cy="8.16601" r="0.5" id="circle6637" fill="#FF0000"/><circle cx="8.42151" cy="9.50128" r="0.5" id="circle6639" fill="#FF0000"/><circle cx="7.33295" cy="-22.9277" r="0.5" id="circle6641" fill="#FF0000"/><circle cx="6.4646" cy="8.84087" r="0.5" id="circle6643" fill="#FF0000"/><circle cx="5.18753" cy="-21.4653" r="0.5" id="circle6645" fill="#FF0000"/><circle cx="7.24226" cy="-24.2281" r="0.5" id="circle6647" fill="#FF0000"/><circle cx="6.46292" cy="-23.941" r="0.5" id="circle6649" fill="#FF0000"/><circle cx="14.022" cy="12.8355" r="0.5" id="circle6651" fill="#FF0000"/><circle cx="10.1317" cy="11.2488" r="0.5" id="circle6653" fill="#FF0000"/><circle cx="7.60412" cy="10.0059" r="0.5" id="circle6655" fill="#FF0000"/><circle cx="7.56728" cy="10.7322" r="0.5" id="circle6657" fill="#FF0000"/><circle cx="9.69784" cy="-25.528" r="0.5" id="circle6659" fill="#FF0000"/><circle cx="12.1736" cy="-26.6209" r="0.5" id="circle6661" fill="#FF0000"/><circle cx="6.50254" cy="-24.4674" r="0.5" id="circle6663" fill="#FF0000"/><circle cx="6.97947" cy="-24.9881" r="0.5" id="circle6665" fill="#FF0000"/><circle cx="10.723" cy="12.7678" r="0.5" id="circle6667" fill="#FF0000"/><circle cx="8.28073" cy="11.6826" r="0.5" id="circle6669" fill="#FF0000"/><circle cx="5.11135" cy="-23.8766" r="0.5" id="circle6671" fill="#FF0000"/><circle cx="7.60218" cy="-26.1221" r="0.5" id="circle6673" fill="#FF0000"/><circle cx="7.74555" cy="12.083" r="0.5" id="circle6675" fill="#FF0000"/><circle cx="14.8514" cy="14.5821" r="0.5" id="circle6677" fill="#FF0000"/><circle cx="5.74116" cy="11.479" r="0.5" id="circle6679" fill="#FF0000"/><circle cx="12.102" cy="-31.156" r="0.5" id="circle6681" fill="#FF0000"/><circle cx="7.32796" cy="-26.8093" r="0.5" id="circle6683" fill="#FF0000"/><circle cx="3.4531" cy="-25.2296" r="0.5" id="circle6685" fill="#FF0000"/><circle cx="3.271" cy="-26.0752" r="0.5" id="circle6687" fill="#FF0000"/><circle cx="8.29708" cy="-31.7512" r="0.5" id="circle6689" fill="#FF0000"/><circle cx="7.5691" cy="-31.9518" r="0.5" id="circle6691" fill="#FF0000"/><circle cx="4.42192" cy="-29.467" r="0.5" id="circle6693" fill="#FF0000"/><circle cx="7.22791" cy="-32.3153" r="0.5" id="circle6695" fill="#FF0000"/><circle cx="2.86434" cy="-27.4624" r="0.5" id="circle6697" fill="#FF0000"/><circle cx="10.1949" cy="16.368" r="0.5" id="circle6699" fill="#FF0000"/><circle cx="10.9043" cy="17.2896" r="0.5" id="circle6701" fill="#FF0000"/><circle cx="7.59889" cy="13.6287" r="0.5" id="circle6703" fill="#FF0000"/><circle cx="9.66277" cy="16.4787" r="0.5" id="circle6705" fill="#FF0000"/><circle cx="10.8323" cy="18.0489" r="0.5" id="circle6707" fill="#FF0000"/><circle cx="10.4744" cy="18.2811" r="0.5" id="circle6709" fill="#FF0000"/><circle cx="5.90955" cy="12.4935" r="0.5" id="circle6711" fill="#FF0000"/><circle cx="5.74857" cy="13.6401" r="0.5" id="circle6713" fill="#FF0000"/><circle cx="9.52182" cy="18.6793" r="0.5" id="circle6715" fill="#FF0000"/><circle cx="6.736" cy="16.7835" r="0.5" id="circle6717" fill="#FF0000"/><circle cx="7.47469" cy="17.7058" r="0.5" id="circle6719" fill="#FF0000"/><circle cx="4.78393" cy="12.6244" r="0.5" id="circle6721" fill="#FF0000"/><circle cx="7.22606" cy="17.921" r="0.5" id="circle6723" fill="#FF0000"/><circle cx="7.55659" cy="18.9369" r="0.5" id="circle6725" fill="#FF0000"/><circle cx="2.84651" cy="15.5536" r="0.5" id="circle6727" fill="#FF0000"/><circle cx="7.03139" cy="-32.6266" r="0.5" id="circle6729" fill="#FF0000"/><circle cx="-0.786794" cy="-27.8625" r="0.5" id="circle6731" fill="#FF0000"/><circle cx="3.19177" cy="16.6013" r="0.5" id="circle6733" fill="#FF0000"/><circle cx="5.42547" cy="19.1569" r="0.5" id="circle6735" fill="#FF0000"/><circle cx="9.94913" cy="22.4051" r="0.5" id="circle6737" fill="#FF0000"/><circle cx="3.88447" cy="18.7522" r="0.5" id="circle6739" fill="#FF0000"/><circle cx="4.62762" cy="-32.8643" r="0.5" id="circle6741" fill="#FF0000"/><circle cx="4.61723" cy="-33.0353" r="0.5" id="circle6743" fill="#FF0000"/><circle cx="1.8755" cy="-31.818" r="0.5" id="circle6745" fill="#FF0000"/><circle cx="4.31734" cy="-33.4997" r="0.5" id="circle6747" fill="#FF0000"/><circle cx="1.11916" cy="17.3049" r="0.5" id="circle6749" fill="#FF0000"/><circle cx="2.96366" cy="19.1308" r="0.5" id="circle6751" fill="#FF0000"/><circle cx="-3.42783" cy="-22.5699" r="0.5" id="circle6753" fill="#FF0000"/><circle cx="6.64944" cy="-34.3376" r="0.5" id="circle6755" fill="#FF0000"/><circle cx="4.84493" cy="-34.1127" r="0.5" id="circle6757" fill="#FF0000"/><circle cx="2.85955" cy="-33.3597" r="0.5" id="circle6759" fill="#FF0000"/><circle cx="1.91044" cy="-32.7746" r="0.5" id="circle6761" fill="#FF0000"/><circle cx="0.443187" cy="-31.5252" r="0.5" id="circle6763" fill="#FF0000"/><circle cx="-1.5342" cy="-30.552" r="0.5" id="circle6765" fill="#FF0000"/><circle cx="7.451" cy="21.3251" r="0.5" id="circle6767" fill="#FF0000"/><circle cx="0.623921" cy="18.199" r="0.5" id="circle6769" fill="#FF0000"/><circle cx="3.9008" cy="20.9025" r="0.5" id="circle6771" fill="#FF0000"/><circle cx="6.76467" cy="-35.7489" r="0.5" id="circle6773" fill="#FF0000"/><circle cx="8.21162" cy="22.814" r="0.5" id="circle6775" fill="#FF0000"/><circle cx="4.40518" cy="21.2797" r="0.5" id="circle6777" fill="#FF0000"/><circle cx="4.81191" cy="21.6498" r="0.5" id="circle6779" fill="#FF0000"/><circle cx="-2.48428" cy="-29.8211" r="0.5" id="circle6781" fill="#FF0000"/><circle cx="6.41654" cy="-36.8833" r="0.5" id="circle6783" fill="#FF0000"/><circle cx="2.29634" cy="20.5902" r="0.5" id="circle6785" fill="#FF0000"/><circle cx="-1.63475" cy="18.3004" r="0.5" id="circle6787" fill="#FF0000"/><circle cx="10.8817" cy="-39.4821" r="0.5" id="circle6789" fill="#FF0000"/><circle cx="7.54243" cy="-38.3398" r="0.5" id="circle6791" fill="#FF0000"/><circle cx="-0.303609" cy="-33.7572" r="0.5" id="circle6793" fill="#FF0000"/><circle cx="-2.59862" cy="-31.0572" r="0.5" id="circle6795" fill="#FF0000"/><circle cx="-0.340823" cy="-34.4391" r="0.5" id="circle6797" fill="#FF0000"/><circle cx="-4.03763" cy="-32.5815" r="0.5" id="circle6799" fill="#FF0000"/><circle cx="-2.39139" cy="-34.5048" r="0.5" id="circle6801" fill="#FF0000"/><circle cx="5.40343" cy="-41.0851" r="0.5" id="circle6803" fill="#FF0000"/><circle cx="5.61918" cy="-41.5221" r="0.5" id="circle6805" fill="#FF0000"/><circle cx="3.25191" cy="-41.3102" r="0.5" id="circle6807" fill="#FF0000"/><circle cx="3.51728" cy="-41.497" r="0.5" id="circle6809" fill="#FF0000"/><circle cx="-2.12595" cy="-35.7227" r="0.5" id="circle6811" fill="#FF0000"/><circle cx="-1.87793" cy="-37.4261" r="0.5" id="circle6813" fill="#FF0000"/><circle cx="6.55166" cy="23.5242" r="0.5" id="circle6815" fill="#FF0000"/><circle cx="6.08593" cy="24.8749" r="0.5" id="circle6817" fill="#FF0000"/><circle cx="10.8508" cy="28.1283" r="0.5" id="circle6819" fill="#FF0000"/><circle cx="2.83166" cy="24.5012" r="0.5" id="circle6821" fill="#FF0000"/><circle cx="7.14457" cy="28.1276" r="0.5" id="circle6823" fill="#FF0000"/><circle cx="-0.474625" cy="23.3661" r="0.5" id="circle6825" fill="#FF0000"/><circle cx="-0.38431" cy="24.8903" r="0.5" id="circle6827" fill="#FF0000"/><circle cx="2.01513" cy="27.2824" r="0.5" id="circle6829" fill="#FF0000"/><circle cx="-5.26127" cy="20.2001" r="0.5" id="circle6831" fill="#FF0000"/><circle cx="-7.14257" cy="-32.5382" r="0.5" id="circle6833" fill="#FF0000"/><circle cx="-7.62368" cy="-31.6664" r="0.5" id="circle6835" fill="#FF0000"/><circle cx="-4.9815" cy="-35.5176" r="0.5" id="circle6837" fill="#FF0000"/><circle cx="-3.60486" cy="-36.7882" r="0.5" id="circle6839" fill="#FF0000"/><circle cx="-4.03468" cy="-36.8807" r="0.5" id="circle6841" fill="#FF0000"/><circle cx="-6.19794" cy="-35.8287" r="0.5" id="circle6843" fill="#FF0000"/><circle cx="-5.56974" cy="-36.644" r="0.5" id="circle6845" fill="#FF0000"/><circle cx="0.145948" cy="26.5318" r="0.5" id="circle6847" fill="#FF0000"/><circle cx="3.02051" cy="28.9405" r="0.5" id="circle6849" fill="#FF0000"/><circle cx="4.18781" cy="29.6037" r="0.5" id="circle6851" fill="#FF0000"/><circle cx="8.27134" cy="30.647" r="0.5" id="circle6853" fill="#FF0000"/><circle cx="-3.00011" cy="25.764" r="0.5" id="circle6855" fill="#FF0000"/><circle cx="-1.30492" cy="-40.4346" r="0.5" id="circle6857" fill="#FF0000"/><circle cx="-0.545487" cy="-41.6845" r="0.5" id="circle6859" fill="#FF0000"/><circle cx="-2.45232" cy="-39.9241" r="0.5" id="circle6861" fill="#FF0000"/><circle cx="-6.35119" cy="-37.5749" r="0.5" id="circle6863" fill="#FF0000"/><circle cx="-6.67744" cy="21.9" r="0.5" id="circle6865" fill="#FF0000"/><circle cx="-0.39135" cy="28.8742" r="0.5" id="circle6867" fill="#FF0000"/><circle cx="-4.07552" cy="-40.8111" r="0.5" id="circle6869" fill="#FF0000"/><circle cx="-6.73568" cy="-37.7487" r="0.5" id="circle6871" fill="#FF0000"/><circle cx="-5.6708" cy="26.0697" r="0.5" id="circle6873" fill="#FF0000"/><circle cx="-2.77203" cy="28.2842" r="0.5" id="circle6875" fill="#FF0000"/><circle cx="-4.69538" cy="27.4677" r="0.5" id="circle6877" fill="#FF0000"/><circle cx="1.78698" cy="-45.0654" r="0.5" id="circle6879" fill="#FF0000"/><circle cx="0.514514" cy="31.4689" r="0.5" id="circle6881" fill="#FF0000"/><circle cx="-11.1186" cy="-34.2352" r="0.5" id="circle6883" fill="#FF0000"/><circle cx="-6.74461" cy="25.819" r="0.5" id="circle6885" fill="#FF0000"/><circle cx="-8.77966" cy="23.4691" r="0.5" id="circle6887" fill="#FF0000"/><circle cx="-5.52548" cy="-41.6276" r="0.5" id="circle6889" fill="#FF0000"/><circle cx="-11.1182" cy="-36.0851" r="0.5" id="circle6891" fill="#FF0000"/><circle cx="-9.74476" cy="-38.5565" r="0.5" id="circle6893" fill="#FF0000"/><circle cx="-3.80607" cy="-44.5576" r="0.5" id="circle6895" fill="#FF0000"/><circle cx="-8.09075" cy="-41.1017" r="0.5" id="circle6897" fill="#FF0000"/><circle cx="-7.85621" cy="-43.0771" r="0.5" id="circle6899" fill="#FF0000"/><circle cx="-5.3214" cy="-44.6678" r="0.5" id="circle6901" fill="#FF0000"/><circle cx="-1.57069" cy="-47.6045" r="0.5" id="circle6903" fill="#FF0000"/><circle cx="0.284173" cy="33.5779" r="0.5" id="circle6905" fill="#FF0000"/><circle cx="-5.5564" cy="29.1288" r="0.5" id="circle6907" fill="#FF0000"/><circle cx="-5.72512" cy="30.4416" r="0.5" id="circle6909" fill="#FF0000"/><circle cx="-6.94251" cy="29.8518" r="0.5" id="circle6911" fill="#FF0000"/><circle cx="-7.5217" cy="30.115" r="0.5" id="circle6913" fill="#FF0000"/><circle cx="-8.60923" cy="28.7092" r="0.5" id="circle6915" fill="#FF0000"/><circle cx="-4.63652" cy="32.8617" r="0.5" id="circle6917" fill="#FF0000"/><circle cx="-9.70111" cy="26.3738" r="0.5" id="circle6919" fill="#FF0000"/><circle cx="-9.54899" cy="27.8462" r="0.5" id="circle6921" fill="#FF0000"/><circle cx="-7.33189" cy="31.503" r="0.5" id="circle6923" fill="#FF0000"/><circle cx="-8.49566" cy="30.7475" r="0.5" id="circle6925" fill="#FF0000"/><circle cx="-9.98235" cy="27.7936" r="0.5" id="circle6927" fill="#FF0000"/><circle cx="-1.37203" cy="36.6921" r="0.5" id="circle6929" fill="#FF0000"/><circle cx="-10.2985" cy="27.6629" r="0.5" id="circle6931" fill="#FF0000"/><circle cx="-10.4311" cy="-45.3732" r="0.5" id="circle6933" fill="#FF0000"/><circle cx="-12.2489" cy="-43.1707" r="0.5" id="circle6935" fill="#FF0000"/><circle cx="11.0286" cy="40.1022" r="0.5" id="circle6937" fill="#FF0000"/><circle cx="-10.9213" cy="30.7518" r="0.5" id="circle6939" fill="#FF0000"/><circle cx="-6.51516" cy="35.2698" r="0.5" id="circle6941" fill="#FF0000"/><circle cx="-11.7461" cy="29.7767" r="0.5" id="circle6943" fill="#FF0000"/><circle cx="-12.2958" cy="32.4128" r="0.5" id="circle6945" fill="#FF0000"/><circle cx="-22.1699" cy="-1.82258" r="0.5" id="circle6947" fill="#0000FF"/><circle cx="-22.2247" cy="-0.650668" r="0.5" id="circle6949" fill="#0000FF"/><circle cx="-23.1988" cy="-0.876429" r="0.5" id="circle6951" fill="#0000FF"/><circle cx="-22.8264" cy="-3.45853" r="0.5" id="circle6953" fill="#0000FF"/><circle cx="-20.0888" cy="-1.57777" r="0.5" id="circle6955" fill="#0000FF"/><circle cx="-21.7206" cy="1.06522" r="0.5" id="circle6957" fill="#0000FF"/><circle cx="-25.0589" cy="-2.73209" r="0.5" id="circle6959" fill="#0000FF"/><circle cx="-20.0856" cy="0.604635" r="0.5" id="circle6961" fill="#0000FF"/><circle cx="-25.3003" cy="-1.97496" r="0.5" id="circle6963" fill="#0000FF"/><circle cx="-22.9927" cy="-5.31076" r="0.5" id="circle6965" fill="#0000FF"/><circle cx="-25.8639" cy="-2.92985" r="0.5" id="circle6967" fill="#0000FF"/><circle cx="-22.9404" cy="-6.41183" r="0.5" id="circle6969" fill="#0000FF"/><circle cx="-19.39" cy="-5.60359" r="0.5" id="circle6971" fill="#0000FF"/><circle cx="-24.4981" cy="-6.11049" r="0.5" id="circle6973" fill="#0000FF"/><circle cx="-23.8913" cy="3.27561" r="0.5" id="circle6975" fill="#0000FF"/><circle cx="-24.2236" cy="-7.00827" r="0.5" id="circle6977" fill="#0000FF"/><circle cx="-22.8352" cy="4.05673" r="0.5" id="circle6979" fill="#0000FF"/><circle cx="-16.7468" cy="-2.04893" r="0.5" id="circle6981" fill="#0000FF"/><circle cx="-17.7293" cy="1.80546" r="0.5" id="circle6983" fill="#0000FF"/><circle cx="-16.5928" cy="-1.26922" r="0.5" id="circle6985" fill="#0000FF"/><circle cx="-27.462" cy="-4.06391" r="0.5" id="circle6987" fill="#0000FF"/><circle cx="-23.0274" cy="-8.21486" r="0.5" id="circle6989" fill="#0000FF"/><circle cx="-18.9638" cy="4.14293" r="0.5" id="circle6991" fill="#0000FF"/><circle cx="-28.5698" cy="-2.29516" r="0.5" id="circle6993" fill="#0000FF"/><circle cx="-28.3273" cy="-3.83404" r="0.5" id="circle6995" fill="#0000FF"/><circle cx="-28.2887" cy="-3.97825" r="0.5" id="circle6997" fill="#0000FF"/><circle cx="-19.7825" cy="4.94168" r="0.5" id="circle6999" fill="#0000FF"/><circle cx="-25.858" cy="-8.00383" r="0.5" id="circle7001" fill="#0000FF"/><circle cx="-15.5575" cy="-4.18022" r="0.5" id="circle7003" fill="#0000FF"/><circle cx="-29.5015" cy="-2.92516" r="0.5" id="circle7005" fill="#0000FF"/><circle cx="-23.7538" cy="6.39857" r="0.5" id="circle7007" fill="#0000FF"/><circle cx="-14.8137" cy="-3.79981" r="0.5" id="circle7009" fill="#0000FF"/><circle cx="-17.8257" cy="-8.751" r="0.5" id="circle7011" fill="#0000FF"/><circle cx="-16.4648" cy="3.76398" r="0.5" id="circle7013" fill="#0000FF"/><circle cx="-28.8428" cy="-6.34791" r="0.5" id="circle7015" fill="#0000FF"/><circle cx="-14.7412" cy="-4.56385" r="0.5" id="circle7017" fill="#0000FF"/><circle cx="-18.9071" cy="-9.82812" r="0.5" id="circle7019" fill="#0000FF"/><circle cx="-30.4027" cy="-1.51297" r="0.5" id="circle7021" fill="#0000FF"/><circle cx="-25.6243" cy="-10.1988" r="0.5" id="circle7023" fill="#0000FF"/><circle cx="-29.6717" cy="2.66881" r="0.5" id="circle7025" fill="#0000FF"/><circle cx="-17.2171" cy="-9.5279" r="0.5" id="circle7027" fill="#0000FF"/><circle cx="-14.3618" cy="-5.70871" r="0.5" id="circle7029" fill="#0000FF"/><circle cx="-16.6173" cy="5.80707" r="0.5" id="circle7031" fill="#0000FF"/><circle cx="-16.6895" cy="6.14679" r="0.5" id="circle7033" fill="#0000FF"/><circle cx="-14.4311" cy="-7.14581" r="0.5" id="circle7035" fill="#0000FF"/><circle cx="-13.0492" cy="-3.37467" r="0.5" id="circle7037" fill="#0000FF"/><circle cx="-12.9084" cy="-2.57457" r="0.5" id="circle7039" fill="#0000FF"/><circle cx="-15.0928" cy="-8.51447" r="0.5" id="circle7041" fill="#0000FF"/><circle cx="-28.1227" cy="6.16262" r="0.5" id="circle7043" fill="#0000FF"/><circle cx="-22.8842" cy="8.5551" r="0.5" id="circle7045" fill="#0000FF"/><circle cx="-31.2974" cy="-4.46845" r="0.5" id="circle7047" fill="#0000FF"/><circle cx="-25.4121" cy="-11.686" r="0.5" id="circle7049" fill="#0000FF"/><circle cx="-30.8406" cy="2.51016" r="0.5" id="circle7051" fill="#0000FF"/><circle cx="-12.7219" cy="-3.19928" r="0.5" id="circle7053" fill="#0000FF"/><circle cx="-21.6981" cy="-12.6028" r="0.5" id="circle7055" fill="#0000FF"/><circle cx="-13.8609" cy="3.85038" r="0.5" id="circle7057" fill="#0000FF"/><circle cx="-20.4957" cy="-12.7457" r="0.5" id="circle7059" fill="#0000FF"/><circle cx="-22.8439" cy="-12.9027" r="0.5" id="circle7061" fill="#0000FF"/><circle cx="-14.9656" cy="5.95474" r="0.5" id="circle7063" fill="#0000FF"/><circle cx="-30.5878" cy="4.21848" r="0.5" id="circle7065" fill="#0000FF"/><circle cx="-13.5522" cy="4.25169" r="0.5" id="circle7067" fill="#0000FF"/><circle cx="-28.7613" cy="7.49317" r="0.5" id="circle7069" fill="#0000FF"/><circle cx="-12.5302" cy="1.43838" r="0.5" id="circle7071" fill="#0000FF"/><circle cx="-32.071" cy="3.09976" r="0.5" id="circle7073" fill="#0000FF"/><circle cx="-23.1219" cy="-13.5938" r="0.5" id="circle7075" fill="#0000FF"/><circle cx="-18.4479" cy="-12.7536" r="0.5" id="circle7077" fill="#0000FF"/><circle cx="-13.7053" cy="5.67436" r="0.5" id="circle7079" fill="#0000FF"/><circle cx="-11.028" cy="3.67423" r="0.5" id="circle7081" fill="#0000FF"/><circle cx="-35.0961" cy="0.032113" r="0.5" id="circle7083" fill="#0000FF"/><circle cx="-16.4652" cy="-12.572" r="0.5" id="circle7085" fill="#0000FF"/><circle cx="-28.8244" cy="-13.2972" r="0.5" id="circle7087" fill="#0000FF"/><circle cx="-30.0234" cy="-12.3924" r="0.5" id="circle7089" fill="#0000FF"/><circle cx="-23.1786" cy="-16.239" r="0.5" id="circle7091" fill="#0000FF"/><circle cx="-21.0124" cy="-16.7104" r="0.5" id="circle7093" fill="#0000FF"/><circle cx="-22.4851" cy="-17.3115" r="0.5" id="circle7095" fill="#0000FF"/><circle cx="-11.6173" cy="-9.73736" r="0.5" id="circle7097" fill="#0000FF"/><circle cx="-11.2379" cy="-9.25111" r="0.5" id="circle7099" fill="#0000FF"/><circle cx="-10.5552" cy="-6.89795" r="0.5" id="circle7101" fill="#0000FF"/><circle cx="-25.533" cy="11.5597" r="0.5" id="circle7103" fill="#0000FF"/><circle cx="-26.66" cy="-17.2117" r="0.5" id="circle7105" fill="#0000FF"/><circle cx="-28.9053" cy="-16.2098" r="0.5" id="circle7107" fill="#0000FF"/><circle cx="-21.3972" cy="-17.5871" r="0.5" id="circle7109" fill="#0000FF"/><circle cx="-10.0502" cy="0.470217" r="0.5" id="circle7111" fill="#0000FF"/><circle cx="-9.02905" cy="-2.02672" r="0.5" id="circle7113" fill="#0000FF"/><circle cx="-9.67265" cy="2.62991" r="0.5" id="circle7115" fill="#0000FF"/><circle cx="-8.27251" cy="1.36461" r="0.5" id="circle7117" fill="#0000FF"/><circle cx="-9.20313" cy="-7.60983" r="0.5" id="circle7119" fill="#0000FF"/><circle cx="-9.23262" cy="6.21058" r="0.5" id="circle7121" fill="#0000FF"/><circle cx="-35.775" cy="-4.88532" r="0.5" id="circle7123" fill="#0000FF"/><circle cx="-35.4984" cy="-7.87478" r="0.5" id="circle7125" fill="#0000FF"/><circle cx="-22.6331" cy="-18.6018" r="0.5" id="circle7127" fill="#0000FF"/><circle cx="-28.5923" cy="-17.1267" r="0.5" id="circle7129" fill="#0000FF"/><circle cx="-9.95106" cy="-11.4352" r="0.5" id="circle7131" fill="#0000FF"/><circle cx="-7.91861" cy="-10.4995" r="0.5" id="circle7133" fill="#0000FF"/><circle cx="-7.24667" cy="-10.7187" r="0.5" id="circle7135" fill="#0000FF"/><circle cx="-6.91416" cy="2.94722" r="0.5" id="circle7137" fill="#0000FF"/><circle cx="-11.1746" cy="-16.1361" r="0.5" id="circle7139" fill="#0000FF"/><circle cx="-28.8064" cy="-19.6809" r="0.5" id="circle7141" fill="#0000FF"/><circle cx="-5.99263" cy="1.46493" r="0.5" id="circle7143" fill="#0000FF"/><circle cx="-21.8854" cy="-23.6116" r="0.5" id="circle7145" fill="#0000FF"/><circle cx="-0.526158" cy="-2.78946" r="0.5" id="circle7147" fill="#0000FF"/><circle cx="31.9884" cy="18.5836" r="0.5" id="circle7149" fill="#B3B3B3"/><circle cx="-27.468" cy="23.3104" r="0.5" id="circle7151" fill="#B3B3B3"/><circle cx="-47.2699" cy="-20.0903" r="0.5" id="circle7153" fill="#B3B3B3"/><circle cx="18.9704" cy="-49.6447" r="0.5" id="circle7155" fill="#B3B3B3"/><circle cx="47.4099" cy="-11.0433" r="0.5" id="circle7157" fill="#B3B3B3"/><circle cx="16.7645" cy="45.7451" r="0.5" id="circle7159" fill="#B3B3B3"/><circle cx="45.0736" cy="44.3496" r="0.5" id="circle7161" fill="#008000"/><circle cx="-30.9574" cy="-42.3878" r="0.5" id="circle7163" fill="#B3B3B3"/><circle cx="26.33" cy="24.4978" r="0.5" id="circle7165" fill="#B3B3B3"/><circle cx="-21.9875" cy="-39.571" r="0.5" id="circle7167" fill="#B3B3B3"/><circle cx="-40.0199" cy="-23.7226" r="0.5" id="circle7169" fill="#B3B3B3"/><circle cx="-14.229" cy="45.1241" r="0.5" id="circle7171" fill="#B3B3B3"/><circle cx="-45.3429" cy="48.923" r="0.5" id="circle7173" fill="#B3B3B3"/><circle cx="-44.712" cy="39.9554" r="0.5" id="circle7175" fill="#B3B3B3"/><circle cx="33.958" cy="-34.0829" r="0.5" id="circle7177" fill="#B3B3B3"/><circle cx="40.4528" cy="-17.9977" r="0.5" id="circle7179" fill="#B3B3B3"/></g><g id="g7181" transform="matrix(0.00833333,0,0,0.00833333,0.462931,0.428911)"></g></svg>